<?xml version="1.0" standalone="no"?>
<!DOCTYPE svg PUBLIC "-//W3C//DTD SVG 20010904//EN"
 "http://www.w3.org/TR/2001/REC-SVG-20010904/DTD/svg10.dtd">
<svg version="1.0" xmlns="http://www.w3.org/2000/svg"
 width="1251.000000pt" height="1251.000000pt" viewBox="0 0 1251.000000 1251.000000"
 preserveAspectRatio="xMidYMid meet">
<metadata>
Created by potrace 1.14, written by Peter Selinger 2001-2017
</metadata>
<g transform="translate(0.000000,1251.000000) scale(0.100000,-0.100000)"
fill="#000000" stroke="none">
<path d="M6740 11751 c-36 -8 -278 -112 -485 -209 -126 -59 -728 -361 -805
-404 -184 -103 -360 -198 -364 -198 -3 0 -35 -18 -71 -40 -36 -22 -127 -70
-203 -106 -436 -210 -1032 -511 -1307 -660 -60 -33 -121 -65 -135 -72 -14 -6
-32 -16 -40 -21 -18 -12 -168 -94 -270 -149 -95 -51 -157 -84 -178 -97 -9 -5
-96 -54 -192 -109 -96 -54 -187 -107 -202 -117 -15 -11 -30 -19 -33 -19 -6 0
-388 -219 -446 -256 -21 -13 -41 -24 -43 -24 -3 0 -22 -12 -43 -26 -21 -14
-47 -30 -58 -35 -11 -5 -34 -18 -51 -28 -50 -30 -457 -275 -476 -286 -10 -5
-57 -35 -105 -65 -49 -30 -104 -63 -123 -73 -19 -11 -42 -25 -50 -32 -17 -14
-218 -138 -286 -176 -118 -67 -219 -186 -267 -317 -31 -83 -37 -119 -38 -219
-1 -219 128 -426 330 -528 136 -68 315 -81 458 -33 l71 24 53 -23 c120 -53
261 -67 384 -39 141 34 702 306 978 475 37 22 69 41 71 41 6 0 231 136 411
250 270 169 603 395 950 642 22 16 51 36 65 46 14 9 27 19 30 22 3 3 64 48
135 100 103 75 265 195 340 253 6 4 47 35 92 70 124 95 377 290 390 302 6 5
26 21 44 35 98 74 767 616 1154 936 72 59 164 131 205 160 41 29 92 71 113 93
21 23 104 95 186 160 176 142 209 179 240 266 47 133 13 284 -86 383 -44 44
-118 87 -167 99 -42 9 -142 12 -176 4z"/>
<path d="M2276 11728 c-240 -29 -449 -146 -590 -332 -198 -260 -235 -592 -99
-885 72 -156 179 -278 321 -368 143 -90 283 -130 457 -131 391 -3 727 252 836
633 28 99 36 297 15 390 -48 218 -161 397 -329 524 -63 48 -185 112 -247 130
-25 7 -58 17 -74 22 -16 5 -61 12 -100 15 -39 3 -82 7 -96 8 -14 1 -56 -2 -94
-6z"/>
<path d="M9753 11721 c-124 -34 -461 -191 -753 -351 -58 -32 -123 -61 -145
-64 -79 -12 -102 -19 -230 -74 -622 -265 -1489 -796 -2445 -1496 -240 -175
-604 -451 -700 -529 -8 -7 -33 -26 -55 -42 -22 -16 -42 -32 -45 -35 -3 -3 -34
-28 -70 -55 -36 -27 -67 -52 -70 -55 -3 -3 -106 -86 -229 -185 -375 -301 -639
-517 -961 -785 -96 -80 -267 -219 -379 -309 -226 -183 -268 -231 -291 -339
-19 -90 -7 -164 42 -268 21 -44 104 -117 168 -148 58 -27 75 -30 155 -30 94 0
99 1 267 78 29 13 94 42 143 64 104 46 276 127 456 217 69 34 144 65 165 69
64 12 542 228 859 388 171 86 470 240 480 248 6 4 51 29 100 55 50 27 146 79
215 118 69 38 150 83 180 100 30 16 62 36 71 43 8 8 19 14 23 14 8 0 50 24
396 229 273 161 492 295 680 413 69 44 134 85 144 91 214 132 563 359 980 637
474 317 525 351 1191 819 203 143 276 210 331 307 127 226 84 544 -97 714 -86
81 -124 105 -215 140 -81 30 -86 31 -194 36 -73 3 -111 0 -167 -15z"/>
<path d="M9025 9120 c-16 -4 -55 -13 -85 -20 -296 -69 -558 -345 -623 -655
-19 -90 -19 -260 0 -350 91 -437 502 -734 944 -683 347 40 648 299 736 633 15
60 29 186 26 251 -3 71 -8 111 -29 204 -12 53 -70 177 -115 245 -120 179 -296
304 -509 361 -69 18 -291 27 -345 14z"/>
<path d="M10029 6115 c-2 -1 -26 -6 -54 -9 -402 -53 -733 -374 -853 -826 -11
-41 -23 -91 -26 -110 -3 -19 -8 -46 -11 -60 -20 -96 -27 -385 -13 -525 20
-199 70 -374 153 -531 59 -110 111 -182 204 -275 203 -202 439 -292 751 -284
144 4 171 7 265 32 252 68 459 231 608 479 170 282 232 722 162 1134 -61 351
-239 648 -490 815 -119 79 -229 122 -385 152 -30 5 -306 13 -311 8z m263 -406
c229 -47 418 -254 494 -539 40 -150 55 -417 33 -585 -49 -367 -259 -634 -537
-685 -331 -59 -598 98 -732 433 -55 138 -74 262 -74 482 0 277 59 485 185 655
92 124 191 194 329 231 75 21 223 24 302 8z"/>
<path d="M58 6072 c-62 -7 -58 71 -58 -1279 0 -1220 0 -1233 20 -1253 21 -21
25 -21 165 -21 180 0 184 0 205 21 20 20 20 34 21 768 l0 747 40 -105 c72
-189 112 -294 126 -335 7 -22 20 -56 28 -75 19 -48 70 -183 230 -610 75 -201
141 -373 146 -382 15 -28 42 -32 219 -29 30 1 61 5 68 10 12 7 77 165 131 316
29 78 131 348 141 370 5 11 77 202 161 425 83 223 153 407 155 409 1 1 3 -331
3 -739 0 -662 1 -744 15 -766 16 -24 17 -24 191 -24 168 0 174 1 189 22 14 20
16 156 16 1255 0 1220 0 1233 -20 1253 -11 11 -26 20 -32 21 -7 0 -98 1 -201
1 -173 1 -190 -1 -207 -18 -10 -10 -36 -66 -58 -124 -21 -58 -67 -181 -101
-275 -35 -93 -69 -184 -77 -202 -8 -17 -14 -34 -14 -39 0 -4 -18 -53 -39 -108
-22 -56 -112 -297 -201 -536 -89 -239 -167 -448 -174 -463 l-13 -28 -17 48
c-10 26 -24 64 -32 83 -16 41 -332 885 -379 1015 -141 387 -229 613 -244 628
-17 17 -38 19 -197 20 -99 1 -191 1 -206 -1z"/>
<path d="M2834 6072 c-12 -2 -30 -12 -39 -22 -17 -19 -18 -91 -18 -1250 0
-1127 2 -1232 17 -1255 l16 -25 528 -1 c989 -1 1082 0 1100 6 32 10 38 45 37
207 -1 138 -3 160 -20 178 -18 20 -26 20 -642 20 l-623 0 0 349 0 349 552 0
c527 1 552 2 570 20 17 17 19 35 19 187 -1 142 -3 171 -17 187 -16 17 -46 18
-571 18 l-553 0 0 310 0 310 623 0 c619 0 624 0 643 21 16 18 19 38 19 182 0
150 -1 163 -20 185 l-21 25 -790 1 c-434 1 -799 0 -810 -2z"/>
<path d="M4892 6068 c-15 -4 -33 -15 -40 -25 -10 -13 -12 -276 -12 -1255 l0
-1238 25 -16 c22 -14 73 -16 437 -15 423 2 498 7 628 42 77 20 280 114 280
129 0 5 9 12 20 15 32 10 182 163 239 245 164 232 235 492 235 850 0 121 -8
232 -20 293 -2 12 -7 36 -9 52 -44 245 -167 483 -336 647 -165 160 -357 247
-602 274 -83 9 -812 10 -845 2z m791 -402 c265 -19 476 -209 565 -511 42 -142
59 -381 38 -545 -50 -387 -273 -652 -579 -688 -34 -4 -150 -7 -257 -7 l-195 0
-2 877 -3 877 43 3 c59 4 297 1 390 -6z"/>
<path d="M7174 6072 c-18 -2 -40 -12 -49 -22 -17 -19 -18 -92 -18 -1256 0
-1210 0 -1236 19 -1255 19 -19 42 -19 829 -20 l809 -1 21 24 c19 22 20 36 20
185 -1 143 -3 164 -19 182 -19 21 -26 21 -643 21 -586 0 -623 1 -624 18 0 24
-1 621 0 653 l1 27 552 0 c527 1 552 2 570 20 17 17 19 35 19 187 0 143 -3
170 -17 186 -16 18 -42 19 -573 19 l-556 0 2 273 c1 149 2 289 2 310 l1 37
624 0 625 0 18 23 c16 21 18 43 18 186 -1 151 -2 163 -22 182 l-21 22 -779 1
c-428 0 -792 0 -809 -2z"/>
<path d="M9037 3272 c-8 -10 -44 -98 -80 -197 -117 -323 -102 -291 -155 -310
-26 -9 -94 -34 -152 -56 -58 -21 -113 -39 -123 -39 -9 0 -17 -3 -18 -7 0 -5
-2 -19 -3 -33 -4 -32 20 -50 53 -40 14 4 77 26 139 49 l113 40 -6 -29 c-4 -16
-17 -51 -30 -79 -25 -50 -48 -117 -81 -226 -9 -33 -19 -64 -20 -70 -8 -25 -47
-192 -49 -210 -2 -11 -11 -65 -20 -120 -18 -101 -24 -343 -10 -415 13 -71 40
-114 83 -132 33 -13 44 -14 58 -4 20 15 11 52 -15 61 -32 10 -43 48 -45 165
-2 101 9 238 29 355 15 93 58 243 125 435 39 113 76 221 82 240 5 19 16 42 24
50 21 22 178 68 325 95 46 9 91 17 99 20 8 2 22 4 31 4 21 1 33 31 20 44 -9 9
-68 10 -181 6 -8 -1 -53 -10 -100 -21 -47 -11 -93 -22 -103 -24 -10 -2 -27 -6
-38 -9 -10 -4 -19 -4 -19 -2 0 17 72 189 132 317 17 36 32 71 34 79 4 20 -24
71 -39 72 -6 0 -20 2 -29 4 -9 2 -23 -4 -31 -13z"/>
<path d="M8103 2312 c-7 -4 -15 -28 -17 -52 -13 -122 -21 -152 -46 -182 -11
-13 -36 -43 -56 -68 -76 -94 -224 -175 -314 -173 -61 2 -107 28 -120 69 -13
38 -14 52 -10 143 2 46 -1 57 -20 73 -34 28 -55 22 -91 -24 -103 -133 -313
-292 -394 -299 -65 -5 -67 -3 -50 39 53 124 225 291 321 308 15 3 32 7 36 11
5 3 18 -3 28 -12 47 -42 43 18 -5 81 -20 27 -29 31 -64 28 -123 -8 -368 -252
-395 -393 -4 -25 1 -48 20 -90 15 -31 34 -62 43 -68 18 -14 82 -11 143 7 56
16 198 122 301 224 15 15 30 26 31 25 2 -2 17 -34 35 -71 55 -117 130 -159
249 -138 85 15 172 60 240 123 l55 52 -8 -35 c-4 -19 -16 -56 -27 -82 -11 -26
-21 -62 -21 -80 -2 -29 3 -35 36 -52 26 -12 42 -15 49 -8 5 5 23 50 40 98 16
49 33 91 37 94 4 3 21 29 39 57 50 82 144 182 224 236 42 28 51 30 106 29 20
-1 32 3 32 11 0 20 -57 48 -98 49 -54 1 -160 -47 -210 -95 l-44 -42 7 54 c4
30 8 63 10 73 6 29 -4 46 -40 68 -37 23 -36 22 -52 12z"/>
<path d="M11086 2302 c-3 -9 -8 -35 -11 -57 -19 -149 -25 -176 -44 -182 -9 -3
-25 -14 -36 -24 -72 -63 -428 -239 -575 -283 -116 -35 -214 -36 -248 -2 -20
20 -30 76 -19 108 8 25 12 27 45 22 21 -3 50 -1 65 5 35 14 169 142 207 200
53 78 35 159 -39 178 -80 20 -307 -194 -355 -335 -24 -69 -184 -180 -272 -189
-75 -7 -117 16 -165 90 -51 79 -60 114 -62 257 -2 111 -3 120 -26 139 -39 34
-94 46 -141 32 -21 -6 -45 -17 -53 -24 -7 -6 -33 -30 -56 -52 l-43 -40 5 56
c4 52 3 58 -18 67 -48 22 -70 6 -86 -60 -6 -29 -25 -90 -41 -135 -15 -46 -28
-91 -28 -100 0 -9 -12 -54 -27 -100 l-27 -83 29 -30 c16 -16 33 -30 38 -30 19
0 54 49 77 106 13 33 42 84 64 114 79 106 198 220 230 220 3 0 4 -8 4 -17 -1
-21 10 -140 18 -198 16 -105 121 -239 213 -270 109 -36 190 -20 304 62 27 19
50 33 51 31 32 -53 95 -120 120 -127 67 -19 195 -5 311 34 136 46 300 124 425
203 52 33 96 59 97 58 5 -5 -26 -115 -46 -165 -26 -64 -21 -84 26 -106 45 -21
52 -14 82 78 44 139 170 306 297 393 46 32 63 38 100 36 33 -1 44 2 44 13 0
20 -55 46 -98 46 -55 0 -156 -44 -204 -90 -23 -22 -44 -39 -45 -37 -1 1 1 24
5 52 13 81 9 105 -18 125 -35 27 -68 32 -74 11z m-761 -239 c-45 -45 -80 -73
-82 -66 -5 15 31 69 67 100 28 25 82 54 89 48 2 -3 -31 -40 -74 -82z"/>
<path d="M6217 2287 c-2 -7 -5 -57 -6 -111 -1 -55 -3 -102 -5 -105 -3 -4 -7
-36 -10 -72 -9 -97 -73 -313 -104 -351 -5 -7 -17 -34 -26 -61 -9 -26 -27 -74
-41 -107 -14 -33 -26 -68 -28 -77 -1 -10 -12 -43 -24 -73 -24 -63 -92 -288
-99 -328 -2 -15 -7 -39 -10 -54 -5 -25 -11 -62 -18 -118 -4 -28 47 -83 73 -78
15 3 75 137 85 191 2 14 10 35 16 48 14 25 62 184 126 419 90 328 106 377 147
445 72 120 121 184 184 245 86 82 126 110 158 110 22 0 25 -5 26 -35 1 -19 2
-41 3 -47 5 -35 -34 -138 -71 -188 -62 -84 -111 -123 -185 -150 -58 -20 -17
-61 62 -62 49 0 122 36 175 89 151 148 183 358 65 427 -41 24 -105 37 -119 23
-6 -6 -11 -8 -11 -4 0 4 -19 -2 -42 -14 -24 -12 -89 -69 -146 -128 l-103 -106
7 117 c7 116 6 116 -19 142 -28 28 -52 33 -60 13z"/>
<path d="M11883 2270 c-78 -21 -179 -67 -232 -107 -57 -44 -71 -114 -35 -170
19 -30 51 -45 162 -78 50 -16 92 -31 91 -34 0 -3 -42 -26 -92 -51 -187 -92
-319 -200 -332 -273 -9 -46 5 -86 37 -110 36 -27 77 -29 166 -11 139 28 299
132 384 248 21 29 29 106 17 160 -5 23 40 40 232 86 211 51 224 55 224 69 0 8
-9 19 -20 26 -21 14 -88 2 -335 -56 -130 -30 -178 -29 -275 8 -44 17 -101 36
-127 43 -42 11 -78 35 -67 43 51 38 119 73 183 93 74 23 97 24 139 8 21 -8 28
44 11 78 -12 23 -43 50 -56 47 -2 0 -35 -9 -75 -19z m95 -457 c20 -40 -19 -94
-125 -174 -120 -90 -246 -140 -331 -130 -35 4 83 118 192 185 60 37 241 136
248 136 4 0 11 -8 16 -17z"/>
</g>
</svg>
